<svg xmlns="http://www.w3.org/2000/svg" viewBox="0 0 1200 360" role="img" aria-labelledby="title desc"><title id="title">Patrón de orquestación de automatización</title><desc id="desc">Evento, n8n, procesamiento de IA, sistemas conectados y revisión humana.</desc><style>.b{fill:#0b1929}.c{fill:#102942;stroke:#5be5ff;stroke-opacity:.6;stroke-width:2}.t{fill:#f1f6fb;font:700 20px Arial}.d{fill:#b9cfdd;font:14px Arial}.l{fill:#5be5ff;font:600 12px monospace}.a{stroke:#5be5ff;stroke-width:3}</style><rect class="b" width="1200" height="360" rx="24"/><text x="60" y="56" class="l">AUTOMATION · PATRÓN DE ORQUESTACIÓN</text><g transform="translate(40 125)"><rect class="c" width="190" height="130" rx="14"/><text x="20" y="48" class="t">Evento</text><text x="20" y="80" class="d">Webhook / entrada</text></g><g transform="translate(270 125)"><rect class="c" width="190" height="130" rx="14"/><text x="20" y="48" class="t">n8n</text><text x="20" y="80" class="d">Orquestación</text></g><g transform="translate(500 125)"><rect class="c" width="190" height="130" rx="14"/><text x="20" y="48" class="t">IA</text><text x="20" y="80" class="d">Tarea acotada</text></g><g transform="translate(730 125)"><rect class="c" width="190" height="130" rx="14"/><text x="20" y="48" class="t">Sistemas</text><text x="20" y="80" class="d">CRM / API</text></g><g transform="translate(960 125)"><rect class="c" width="190" height="130" rx="14"/><text x="20" y="48" class="t">Revisión</text><text x="20" y="80" class="d">Humano / log</text></g><path class="a" d="M230 190h35m195 0h35m195 0h35m195 0h35"/></svg>
